<?xml version="1.0" standalone="no"?>
<!DOCTYPE svg PUBLIC "-//W3C//DTD SVG 20010904//EN"
 "http://www.w3.org/TR/2001/REC-SVG-20010904/DTD/svg10.dtd">
<svg version="1.0" xmlns="http://www.w3.org/2000/svg"
 width="512.000000pt" height="512.000000pt" viewBox="0 0 512.000000 512.000000"
 preserveAspectRatio="xMidYMid meet">
<metadata>
Created by potrace 1.16, written by Peter Selinger 2001-2019
</metadata>
<g transform="translate(0.000000,512.000000) scale(0.100000,-0.100000)"
fill="#DC3545" stroke="none">
<path d="M1813 5100 c-134 -48 -237 -152 -284 -288 -15 -42 -19 -83 -19 -174
l0 -118 -487 0 -488 0 -51 -24 c-112 -52 -174 -151 -174 -276 0 -125 62 -224
174 -276 l51 -24 2025 0 2025 0 51 24 c112 52 174 151 174 276 0 125 -62 224
-174 276 l-51 24 -487 0 -488 0 0 118 c0 91 -4 132 -19 174 -47 138 -151 242
-288 289 -54 18 -88 19 -747 18 -647 0 -694 -2 -743 -19z m1415 -305 c56 -34
74 -75 80 -181 l5 -94 -753 0 -753 0 5 94 c7 127 37 176 123 197 17 4 307 7
645 6 596 -2 616 -3 648 -22z"/>
<path d="M620 3601 c0 -51 261 -3174 270 -3226 27 -168 154 -311 319 -361 69
-21 2633 -21 2702 0 165 50 292 193 319 361 9 52 270 3175 270 3226 0 19 -37
19 -1940 19 -1903 0 -1940 0 -1940 -19z m1117 -311 c66 -40 59 22 139 -1260
40 -646 74 -1208 74 -1249 0 -84 -21 -131 -70 -156 -67 -35 -163 -6 -197 58
-13 26 -29 247 -89 1207 -40 646 -74 1208 -74 1248 0 47 6 84 15 103 22 42 71
69 125 69 27 0 58 -8 77 -20z m895 3 c16 -10 39 -34 51 -53 l22 -35 0 -1245
c0 -1227 0 -1245 -20 -1278 -58 -96 -192 -96 -250 0 -20 33 -20 51 -20 1278
l0 1245 21 33 c44 69 130 93 196 55z m898 2 c49 -25 70 -72 70 -156 0 -41 -34
-603 -74 -1249 -60 -960 -76 -1181 -89 -1207 -34 -64 -130 -93 -197 -58 -49
25 -70 72 -70 156 0 41 34 603 74 1249 59 955 76 1181 89 1207 34 65 129 93
197 58z"/>
</g>
</svg>
