<?xml version="1.0" standalone="no"?>
<!DOCTYPE svg PUBLIC "-//W3C//DTD SVG 20010904//EN"
 "http://www.w3.org/TR/2001/REC-SVG-20010904/DTD/svg10.dtd">
<svg version="1.0" xmlns="http://www.w3.org/2000/svg"
 width="25.000000pt" height="25.000000pt" viewBox="0 0 512.000000 512.000000"
 preserveAspectRatio="xMidYMid meet">

<g transform="translate(0.000000,512.000000) scale(0.100000,-0.100000)"
fill="#1360ef" stroke="none">
<path d="M1415 4094 c-104 -17 -223 -64 -309 -123 -45 -30 -135 -121 -168
-169 -86 -125 -122 -241 -122 -397 0 -199 60 -342 203 -486 138 -138 292 -203
486 -203 121 0 199 19 315 76 120 59 239 178 298 298 57 116 76 194 76 315 0
121 -19 199 -76 315 -79 163 -259 309 -437 355 -66 17 -212 27 -266 19z"/>
<path d="M2908 4084 c-334 -80 -487 -469 -297 -753 52 -78 107 -125 194 -167
333 -160 705 73 705 441 0 318 -296 554 -602 479z"/>
<path d="M4197 4089 c-105 -25 -209 -109 -255 -207 -24 -50 -27 -69 -27 -162
0 -100 1 -108 34 -168 67 -123 177 -194 313 -200 122 -6 212 31 296 122 108
117 127 284 49 429 -76 144 -251 224 -410 186z"/>
<path d="M4137 3030 c-87 -16 -190 -51 -269 -92 -43 -22 -78 -43 -78 -47 0 -3
31 -26 67 -51 151 -101 330 -301 424 -471 l44 -79 347 2 c332 3 348 4 374 24
74 55 90 122 51 208 -107 233 -328 416 -592 488 -80 22 -290 32 -368 18z"/>
<path d="M2790 2781 c-165 -36 -357 -124 -466 -215 l-35 -29 95 -51 c249 -133
512 -374 660 -603 l40 -63 460 0 c442 0 462 1 494 20 91 56 94 137 11 310
-152 314 -413 529 -756 622 -113 30 -383 35 -503 9z"/>
<path d="M1350 2399 c-244 -23 -489 -113 -710 -260 -116 -77 -312 -269 -395
-388 -79 -113 -157 -270 -201 -405 -58 -175 -52 -239 30 -300 27 -21 32 -21
1409 -24 950 -2 1393 0 1419 8 45 13 95 68 104 116 14 74 -79 338 -176 501
-312 522 -878 809 -1480 752z"/>
</g>
</svg>
