<?xml version="1.0" standalone="no"?>
<!DOCTYPE svg PUBLIC "-//W3C//DTD SVG 20010904//EN"
 "http://www.w3.org/TR/2001/REC-SVG-20010904/DTD/svg10.dtd">
<svg version="1.0" xmlns="http://www.w3.org/2000/svg"
 width="500.000000pt" height="500.000000pt" viewBox="0 0 500.000000 500.000000"
 preserveAspectRatio="xMidYMid meet">

<g transform="translate(0.000000,500.000000) scale(0.100000,-0.100000)"
fill="#000000" stroke="none">
<path d="M1870 3810 c-164 -22 -294 -119 -400 -300 -142 -244 -66 -526 247
-917 168 -210 535 -566 724 -703 38 -27 43 -28 68 -16 57 30 316 259 491 435
457 460 634 797 562 1071 -49 186 -194 348 -363 407 -79 27 -201 33 -285 12
-168 -41 -323 -181 -395 -355 -13 -30 -26 -54 -30 -54 -4 0 -12 15 -18 33 -21
61 -110 194 -163 242 -126 113 -283 165 -438 145z"/>
</g>
</svg>
