<?xml version="1.0" standalone="no"?>
<!DOCTYPE svg PUBLIC "-//W3C//DTD SVG 20010904//EN"
 "http://www.w3.org/TR/2001/REC-SVG-20010904/DTD/svg10.dtd">
<svg version="1.0" xmlns="http://www.w3.org/2000/svg"
 width="512.000000pt" height="512.000000pt" viewBox="0 0 512.000000 512.000000"
 preserveAspectRatio="xMidYMid meet">

<g transform="translate(0.000000,512.000000) scale(0.100000,-0.100000)"
fill="#000000" stroke="none">
<path d="M2930 5109 c-183 -27 -359 -123 -489 -264 -180 -198 -255 -505 -177
-732 50 -148 156 -255 308 -311 l73 -27 760 -3 c807 -4 817 -3 925 45 165 73
270 217 301 412 19 123 -14 291 -85 436 -101 205 -284 356 -516 426 -73 22
-89 23 -555 25 -265 1 -509 -2 -545 -7z"/>
<path d="M2955 3395 c-30 -30 -32 -64 -4 -99 26 -33 79 -36 109 -6 30 30 27
83 -6 109 -35 28 -69 26 -99 -4z"/>
<path d="M3805 3395 c-30 -30 -32 -64 -4 -99 26 -33 79 -36 109 -6 30 30 27
83 -6 109 -35 28 -69 26 -99 -4z"/>
</g>
</svg>
