<?xml version="1.0" standalone="no"?>
<!DOCTYPE svg PUBLIC "-//W3C//DTD SVG 20010904//EN"
 "http://www.w3.org/TR/2001/REC-SVG-20010904/DTD/svg10.dtd">
<svg version="1.0" xmlns="http://www.w3.org/2000/svg"
 width="25.000000pt" height="25.000000pt" viewBox="0 0 512.000000 512.000000"
 preserveAspectRatio="xMidYMid meet">

<g transform="translate(0.000000,512.000000) scale(0.100000,-0.100000)"
fill="#464b4f80" stroke="none">
<path d="M205 5102 c-99 -34 -174 -117 -195 -215 -8 -37 -10 -701 -8 -2357 l3
-2305 21 -46 c28 -60 93 -125 153 -153 l46 -21 1012 0 1013 0 27 27 c38 39 38
97 0 136 l-27 27 -995 5 -995 5 -27 28 -28 27 0 2300 0 2300 28 27 27 28 1345
3 1344 2 3 -332 c3 -378 5 -385 88 -468 83 -83 90 -85 468 -88 l332 -3 0 -906
0 -905 35 -35 c31 -31 40 -35 72 -30 20 4 48 18 62 32 l26 25 3 953 c1 523 0
968 -3 987 -6 30 -75 103 -458 487 -248 249 -466 460 -483 468 -28 13 -203 15
-1436 15 -1304 -1 -1407 -2 -1453 -18z m3220 -602 l270 -270 -239 0 -238 0
-34 34 -34 34 0 236 c0 130 1 236 3 236 1 0 124 -121 272 -270z"/>
<path d="M1845 4360 c-339 -73 -594 -321 -681 -660 -26 -102 -26 -306 0 -404
87 -329 323 -565 652 -652 51 -13 105 -18 204 -18 99 0 153 5 204 18 330 88
568 327 652 656 26 103 26 296 0 400 -68 271 -256 495 -503 603 -161 71 -364
93 -528 57z m370 -210 c497 -154 647 -773 274 -1137 -357 -350 -963 -197
-1115 282 -122 382 111 780 510 871 85 19 241 12 331 -16z"/>
<path d="M1953 3936 l-28 -24 -3 -156 -3 -156 -140 0 c-148 0 -187 -9 -209
-49 -18 -35 -12 -88 14 -118 l24 -28 155 -3 156 -3 3 -156 3 -155 28 -24 c19
-16 40 -24 67 -24 27 0 48 8 67 24 l28 24 3 155 3 156 156 3 155 3 24 28 c26
30 32 83 14 118 -22 40 -61 49 -210 49 l-140 0 0 140 c0 149 -9 188 -49 210
-35 18 -88 12 -118 -14z"/>
<path d="M705 2311 c-64 -27 -81 -110 -32 -158 l27 -28 206 0 206 0 24 28 c33
38 33 96 0 134 l-24 28 -194 2 c-106 1 -202 -1 -213 -6z"/>
<path d="M1520 2307 c-14 -7 -33 -29 -43 -50 -18 -36 -18 -38 0 -74 10 -21 29
-43 43 -50 20 -10 220 -12 922 -10 l898 2 27 27 c21 21 28 38 28 68 0 30 -7
47 -28 68 l-27 27 -898 2 c-702 2 -902 0 -922 -10z"/>
<path d="M3662 2010 c-153 -40 -156 -43 -663 -548 -349 -347 -476 -480 -503
-526 -137 -231 -107 -531 74 -729 78 -84 164 -141 265 -173 165 -52 317 -40
475 37 80 39 100 57 326 281 l241 239 16 -83 c66 -334 386 -557 713 -497 242
44 432 223 494 465 65 254 -47 526 -275 671 -88 56 -196 86 -308 87 l-99 1 6
35 c41 246 -24 449 -194 603 -152 137 -367 189 -568 137z m263 -194 c77 -20
135 -54 191 -112 130 -132 157 -319 72 -488 -24 -47 -72 -102 -212 -244 l-181
-183 -298 298 -298 299 188 185 c189 187 231 219 323 245 60 16 154 17 215 0z
m-457 -1352 c-142 -140 -197 -188 -244 -212 -169 -85 -356 -58 -488 72 -134
130 -164 324 -76 496 14 27 95 118 209 233 l185 188 299 -298 298 -298 -183
-181z m932 156 l0 -409 -40 14 c-107 38 -205 134 -251 245 -32 78 -32 222 -1
299 33 78 76 136 137 182 41 31 122 73 153 79 1 0 2 -184 2 -410z m355 331
c61 -46 104 -104 137 -182 31 -77 31 -221 -1 -299 -46 -111 -144 -207 -251
-245 l-40 -14 0 409 0 410 51 -19 c27 -11 75 -38 104 -60z"/>
<path d="M705 1751 c-64 -27 -81 -110 -32 -158 l27 -28 206 0 206 0 24 28 c33
38 33 96 0 134 l-24 28 -194 2 c-106 1 -202 -1 -213 -6z"/>
<path d="M1520 1747 c-14 -7 -33 -29 -43 -50 -18 -36 -18 -38 0 -74 10 -21 29
-43 43 -50 19 -10 145 -12 552 -10 l528 2 27 27 c21 21 28 38 28 68 0 30 -7
47 -28 68 l-27 27 -528 2 c-407 2 -533 0 -552 -10z"/>
<path d="M705 1191 c-64 -27 -81 -110 -32 -158 l27 -28 187 -3 c196 -3 231 2
258 42 23 32 19 90 -9 123 l-24 28 -194 2 c-106 1 -202 -1 -213 -6z"/>
<path d="M1520 1187 c-38 -18 -63 -77 -50 -113 16 -42 39 -63 75 -70 111 -21
159 133 58 185 -28 14 -52 14 -83 -2z"/>
</g>
</svg>
