<?xml version="1.0" standalone="no"?>
<!DOCTYPE svg PUBLIC "-//W3C//DTD SVG 20010904//EN"
 "http://www.w3.org/TR/2001/REC-SVG-20010904/DTD/svg10.dtd">
<svg version="1.0" xmlns="http://www.w3.org/2000/svg"
 width="25.000000pt" height="25.000000pt" viewBox="0 0 512.000000 512.000000"
 preserveAspectRatio="xMidYMid meet">

<g transform="translate(0.000000,512.000000) scale(0.100000,-0.100000)"
fill="#464b4f80" stroke="none">
<path d="M244 4555 c-92 -29 -167 -97 -211 -190 l-28 -60 0 -745 0 -745 26
-56 c37 -79 90 -133 167 -171 66 -33 68 -33 234 -37 l168 -3 0 363 c0 414 5
455 69 584 71 142 182 241 341 301 l75 29 1104 3 1103 3 -4 232 c-5 252 -10
278 -67 360 -37 55 -89 94 -160 124 l-56 23 -1360 -1 c-1083 -1 -1368 -4
-1401 -14z"/>
<path d="M1113 3555 c-102 -31 -176 -96 -222 -195 l-26 -55 0 -745 0 -745 26
-56 c37 -79 90 -133 167 -171 l66 -33 222 -3 222 -3 4 383 c5 421 7 438 71
568 46 95 169 216 267 264 139 68 104 66 1229 66 l1013 0 -4 233 c-5 256 -11
284 -72 368 -19 25 -55 60 -82 78 -98 65 -13 61 -1493 60 -1084 0 -1354 -3
-1388 -14z"/>
<path d="M2090 2556 c-66 -19 -103 -40 -151 -89 -56 -55 -88 -119 -100 -200
-6 -38 -9 -335 -7 -752 4 -760 1 -722 67 -818 37 -55 89 -94 160 -124 l56 -23
1355 0 c1465 0 1400 -2 1486 53 59 37 100 85 131 152 l28 60 0 745 0 745 -33
67 c-38 77 -92 130 -171 167 l-56 26 -1360 2 c-1066 1 -1370 -1 -1405 -11z"/>
</g>
</svg>
