<?xml version="1.0" standalone="no"?>
<!DOCTYPE svg PUBLIC "-//W3C//DTD SVG 20010904//EN"
 "http://www.w3.org/TR/2001/REC-SVG-20010904/DTD/svg10.dtd">
<svg version="1.0" xmlns="http://www.w3.org/2000/svg"
 width="20.000000pt" height="20.000000pt" viewBox="0 0 512.000000 512.000000"
 preserveAspectRatio="xMidYMid meet">
<metadata>
Created by potrace 1.16, written by Peter Selinger 2001-2019
</metadata>
<g transform="translate(0.000000,512.000000) scale(0.100000,-0.100000)"
fill="#FF6F00" stroke="none">
<path d="M1805 5103 c-44 -23 -65 -43 -88 -88 -19 -35 -22 -60 -25 -217 l-4
-178 -367 0 c-422 0 -455 -5 -616 -85 -204 -101 -359 -295 -415 -519 -20 -77
-20 -115 -20 -1706 0 -1849 -7 -1689 86 -1880 41 -82 61 -108 148 -195 86 -86
115 -108 196 -148 178 -88 162 -87 893 -87 624 0 642 1 683 20 24 12 54 39 70
62 26 37 29 50 29 118 0 66 -4 82 -27 117 -16 24 -44 49 -70 62 -44 21 -54 21
-614 21 -328 0 -599 5 -639 10 -95 14 -165 49 -231 114 -65 66 -100 136 -114
231 -13 95 -13 3015 0 3110 14 95 49 165 114 231 66 65 136 100 231 114 39 5
203 10 366 10 l296 0 6 -104 c12 -190 74 -326 202 -444 112 -103 243 -152 403
-152 173 0 307 55 428 175 118 118 174 254 174 428 l0 97 303 0 c166 0 334 -5
372 -10 135 -20 251 -104 311 -225 l29 -60 5 -525 c5 -524 5 -525 28 -568 34
-64 99 -102 176 -102 77 0 134 27 172 82 l29 41 3 526 c3 569 1 603 -49 732
-93 241 -300 424 -553 489 -73 18 -111 20 -452 20 l-373 0 -3 188 c-3 185 -3
189 -30 229 -16 24 -44 49 -70 62 -43 20 -56 21 -504 21 -399 -1 -463 -3 -489
-17z m685 -705 c0 -308 -1 -324 -21 -366 -61 -125 -248 -138 -326 -23 -39 58
-43 95 -43 409 l0 302 195 0 195 0 0 -322z"/>
<path d="M3405 2400 c-429 -93 -759 -382 -903 -792 -47 -131 -65 -243 -65
-398 0 -154 18 -266 64 -398 137 -389 442 -669 848 -780 89 -24 111 -26 301
-26 189 0 213 2 300 26 220 60 396 161 556 322 237 237 354 519 354 856 0 337
-117 619 -354 856 -161 161 -338 264 -556 321 -134 36 -411 42 -545 13z m433
-411 c224 -51 423 -211 528 -424 61 -123 84 -222 84 -355 0 -133 -23 -232 -84
-355 -215 -436 -758 -581 -1164 -311 -244 162 -387 469 -352 754 24 190 97
339 235 477 207 207 466 280 753 214z"/>
<path d="M3555 1804 c-45 -25 -65 -45 -89 -89 -20 -38 -21 -53 -21 -300 0
-247 1 -262 21 -300 25 -46 45 -66 91 -89 26 -13 68 -16 234 -16 233 0 264 8
315 82 26 37 29 50 29 118 0 66 -4 82 -27 117 -38 57 -95 83 -186 83 l-72 0 0
132 c0 156 -15 201 -83 246 -51 34 -164 42 -212 16z"/>
</g>
</svg>
