<?xml version="1.0" standalone="no"?>
<!DOCTYPE svg PUBLIC "-//W3C//DTD SVG 20010904//EN"
 "http://www.w3.org/TR/2001/REC-SVG-20010904/DTD/svg10.dtd">
<svg version="1.0" xmlns="http://www.w3.org/2000/svg"
 width="512.000000pt" height="512.000000pt" viewBox="0 0 512.000000 512.000000"
 preserveAspectRatio="xMidYMid meet">
<metadata>
Created by potrace 1.16, written by Peter Selinger 2001-2019
</metadata>
<g transform="translate(0.000000,512.000000) scale(0.100000,-0.100000)"
fill="#1360EF" stroke="none">
<path d="M1705 5103 c-404 -86 -714 -380 -822 -778 -25 -91 -27 -116 -27 -275
1 -147 4 -187 22 -252 89 -324 281 -562 567 -703 131 -64 223 -91 367 -107
202 -21 390 13 583 107 282 137 478 380 567 703 18 65 22 105 22 252 0 158 -3
184 -27 275 -108 401 -421 695 -829 779 -99 20 -326 20 -423 -1z"/>
<path d="M840 2541 c-413 -89 -735 -413 -821 -826 -17 -80 -19 -139 -19 -530
0 -422 1 -441 20 -473 11 -18 34 -41 52 -52 32 -19 52 -20 749 -20 l715 0 -17
67 c-72 274 73 584 331 710 134 66 190 73 552 73 340 0 399 -7 516 -56 34 -15
64 -25 66 -23 2 2 54 105 116 229 106 210 118 229 184 295 82 80 200 147 296
167 33 6 60 15 60 18 0 3 -25 34 -56 70 -147 169 -319 278 -540 342 l-79 23
-1020 2 c-953 2 -1026 1 -1105 -16z"/>
<path d="M3633 1685 c-30 -15 -61 -41 -76 -63 -14 -20 -130 -247 -258 -504
l-233 -466 -123 183 c-114 170 -126 185 -175 209 l-52 26 -316 0 -316 0 -51
-25 c-32 -16 -61 -41 -79 -67 -26 -37 -29 -49 -29 -124 0 -75 3 -86 30 -125
17 -23 50 -53 74 -66 43 -22 53 -23 280 -23 l236 0 160 -242 c219 -331 238
-356 288 -378 50 -23 143 -26 190 -6 18 7 46 27 63 44 19 19 118 206 264 501
129 259 237 471 240 471 3 0 104 -164 224 -365 120 -201 230 -377 242 -391 13
-14 43 -34 66 -44 40 -18 68 -20 359 -20 l315 0 51 25 c76 38 107 89 111 181
4 66 1 79 -23 120 -16 27 -46 57 -73 75 l-46 29 -237 0 -238 0 -292 488 c-160
268 -304 500 -318 516 -62 68 -169 85 -258 41z"/>
</g>
</svg>
